<svg preserveAspectRatio="xMidYMid meet" data-bbox="50 40.5 100 119.001" viewBox="50 40.5 100 119.001" height="200" width="200" xmlns="http://www.w3.org/2000/svg" data-type="color" role="img"><defs><style>#comp-kadpstna svg [data-color="1"] {fill: #2388ed;}</style></defs>
    <g>
        <path d="M136.149 118.112C144.676 109.891 150 98.414 150 85.711c0-24.93-20.433-45.211-45.549-45.211-11.202 0-21.456 4.052-29.398 10.733l-4.805-5.263a1.792 1.792 0 0 0-1.241-.58c-.482-.042-.938.146-1.291.464C56.457 56.08 50 70.609 50 85.711c0 29.2 23.47 53.006 52.663 53.954v16.288h-8.55a1.78 1.78 0 0 0-1.787 1.774c0 .98.8 1.774 1.787 1.774h20.675a1.78 1.78 0 0 0 1.787-1.774c0-.98-.8-1.774-1.787-1.774h-8.551v-16.28c12.835-.418 25.092-5.266 34.671-13.851.356-.32.567-.766.589-1.24.02-.476-.152-.94-.479-1.287l-4.869-5.183zM118.038 83.87a173.896 173.896 0 0 0-4.915-5.772 160.732 160.732 0 0 0-5.191-5.537c5.152-3.93 10.145-7.222 14.579-9.572 7.949-4.212 10.948-3.721 11.438-3.168 1.507 1.693-3.138 11.165-15.911 24.049zm12.499 31.116c-1.705 1.497-11.249-3.112-24.231-15.789a173.143 173.143 0 0 0 5.814-4.876 160.419 160.419 0 0 0 5.579-5.152c3.959 5.112 7.275 10.067 9.644 14.467 4.244 7.887 3.744 10.867 3.194 11.35zm-20.091-34.537a169.574 169.574 0 0 1 5.045 5.93 168.279 168.279 0 0 1-11.714 10.29 169.136 169.136 0 0 1-5.323-5.695 168.784 168.784 0 0 1-5.045-5.94 170.634 170.634 0 0 1 5.739-5.275h-.001a171.288 171.288 0 0 1 5.981-5.013 172.647 172.647 0 0 1 5.318 5.703zm-30.925 20.274c2.892-4.079 6.793-8.595 11.353-13.189a160.581 160.581 0 0 0 4.903 5.792 160.668 160.668 0 0 0 5.19 5.535c-5.151 3.93-10.145 7.222-14.578 9.571-7.948 4.21-10.952 3.708-11.438 3.168-.485-.545-.613-3.564 4.57-10.877zM96.78 77.101h-.001a172.176 172.176 0 0 0-5.588 5.133C80.1 67.898 76.657 57.932 78.363 56.435c.206-.181.526-.273.953-.273 3.107 0 11.864 4.901 23.283 16.057a173.52 173.52 0 0 0-5.819 4.882zM74.566 56.5c-1.048 6.108 6.142 17.953 14.086 28.225-4.836 4.846-8.988 9.632-12.054 13.957-3.772 5.32-5.553 9.441-5.402 12.356-5.447-7.028-8.724-15.795-8.724-25.327 0-11.372 4.625-21.685 12.094-29.211zm1.781 59.012c2.843 0 6.764-1.32 11.728-3.952 4.7-2.492 9.993-5.996 15.429-10.167 9.148 8.933 19.913 17.341 26.197 17.341.092 0 .177-.016.267-.019-7.081 5.406-15.914 8.659-25.517 8.659-11.439 0-21.814-4.577-29.393-11.968.402.069.831.106 1.289.106zm57.982-.585c.529-2.876-.731-7.198-3.834-12.963-2.511-4.665-6.042-9.918-10.246-15.313 9.121-9.2 17.698-20.048 17.467-26.247 5.438 7.025 8.709 15.785 8.709 25.308.001 11.373-4.625 21.689-12.096 29.215zm-.442-58.871c-2.897-.526-7.253.725-13.062 3.805-4.701 2.492-9.994 5.997-15.431 10.168-9.269-9.052-20.196-17.565-26.444-17.336 7.079-5.398 15.905-8.646 25.502-8.646 11.46 0 21.853 4.593 29.435 12.009zm-29.436 80.152c-28.054 0-50.877-22.652-50.877-50.497 0-13.517 5.537-26.54 15.252-36.015l3.583 3.924c-8.334 8.198-13.51 19.553-13.51 32.092 0 24.93 20.435 45.211 45.553 45.211a45.544 45.544 0 0 0 29.052-10.422l3.64 3.873a50.97 50.97 0 0 1-32.693 11.834z" fill="#2388ed" data-color="1"></path>
    </g>
</svg>