<svg preserveAspectRatio="xMidYMid meet" data-bbox="10 25 180 150" viewBox="10 25 180 150" xmlns="http://www.w3.org/2000/svg" data-type="color" role="img" aria-labelledby="svgcid-n7tip36ud2xs"><defs><style>#comp-kadpynjr svg [data-color="1"] {fill: #2388ed;}</style></defs><title id="svgcid-n7tip36ud2xs"></title>
    <g>
        <path d="M190 153.7v-1.6c0-.5-4.6-49.7-56.7-51.6 7.2-1.5 19.3-10 21.6-17.1l4.2-.1c3.8 0 6.3-3.6 6.3-8.6V48.8c0-12.6-12.7-23.8-27.4-23.8h-10.5c-11.8 0-23.2 8.4-27 17.6-4-9.2-13.7-17.6-25.4-17.6H62.4c-15.8 0-27.6 12.1-27.8 23.6v25.8c0 4.9 2.5 8.5 6.3 8.5l4.3.1c3.1 9.4 11.4 16.3 21.3 17.4 0 .1.1.1.1.2-54.2.7-56.6 51-56.6 51.6v1.6h38.1s.1 0 .1-.1c-4.6 10.5-4.7 19.5-4.7 20v1.3h112.9v-1.6c-.1-.2-.6-9.5-5.2-20.2.2.1.6.2.8.4h38zm-35.3-80.8l-.1 2.6c0 10.7-10.8 21.1-20.9 23.3-.4.1-1.3.2-1.9.3l-.1.1c0-.4.1-.9.1-1.3V70.2c0-8.6-5.7-17.7-13.9-21.9l15.5.2h13.8c2.7 0 7 4.3 7.1 7.2l.4 17.2zm-72.3-5.4c-4.5 0-8.7 5.9-8.7 10.5v8.5H71c-1.2 0-2.1.5-2.8 1.1V69.5c0-11.1 10.7-21 22.8-21h14c13 0 24.6 9.9 24.6 21.1v13.3c0 1.8 0 3.4.1 5-.9-.8-2-1.4-3.4-1.4h-3.4v-8.9c0-4.8-4.2-10.1-8.7-10.1H82.4zm47.2 27.7c0 2.9-1.3 5.9-3.7 5.9h-3.4c.2-1.4.3-2.9.3-4.4v-7.9h3c2.3 0 3.8 3.4 3.8 6.4zm-55.5 5.9h-3.4c-2.5 0-3.7-2.9-3.7-5.9 0-3.2 1.5-6.5 3.7-6.5h3v8c-.1 1.5.1 3 .4 4.4zm86.1-20.6H156c.4-2.4.5-4.2.5-5.9v-7h3c2.2 0 3.7 3.4 3.7 6.5.1 2.8-.6 5.8-3 6.4zm-58-34.2c1.4-9.8 13.6-19 25.2-19h10.3c14 0 25.5 10.6 25.5 21.6v12.9c0 1.8 0 3.3.1 4.9-1-.8-2.2-1.3-3.7-1.3h-3.2s-.1-6.3 0-9.9c.1-3.6-4.2-9-8.7-9.1l-45.5-.1zM40.5 80.5c-2.5 0-3.7-3.6-3.7-6.5 0-3.2 1.5-6.5 3.7-6.5h3v7c0 1.9.2 4.3.5 5.9h-3.5zM52 46.3c-4.5 0-8.5 6-8.5 9.1v9.9h-3.2c-1.5 0-2.7.6-3.7 1.3.1-1.5.1-3.1.1-4.9V49.1c0-4.6 7.2-21.9 25.3-21.8h12.5c12 .5 21.9 8.9 23.4 19H52zm28.8 2.2c-11.9 4.8-16 13.1-16 21.6v27.6c-.2-.1-.6-.1-.8-.2-9.7-2.9-18.1-12.4-18.1-22.5l-.1-2.5V55.7c0-3 3.8-7.3 6.8-7.3l28.2.1zM13.9 150.4h-.6c.8-8.6 8.9-47 53.9-47 .3 0 .9 0 1.5.1.8.6 1.8.9 2.8.9h3.3c2.5 8.9 9.4 15.7 18.2 17.6-16.2 1.3-29 7.9-38.1 19.5-2.2 2.9-4 5.8-5.5 8.7l-35.5.2zm84.4 21.2H45.9c.4-4.3 2.3-16.9 11.3-28.3 5.4-6.9 12.3-11.9 20.3-15l20.8 11.8v31.5zm0-34.6l-17.1-9.7c5.3-1.6 11-2.4 17.1-2.5V137zm16.5-66.1c2.8 0 5.8 4 5.9 6.9v16.9l-.1 2.5c0 12.4-9.9 22.6-21.9 22.6-12.1 0-21.6-10.1-21.6-22.6V78.3c0-3 2.9-7.4 5.8-7.4h31.9zm-13.1 54c6.5.1 12.3 1 17.2 2.5l-17.2 9.7v-12.2zm52.1 46.7h-52.1v-31.5l21-11.9c26.4 10.1 30.4 36.6 31.1 43.4zm-3.5-21.2c-.1.1-.1.2-.2.3-6.5-13.1-19.5-27.2-46.2-28.7 8.6-2.1 15.4-8.8 18-17.5h4.1c.6 0 1.1-.1 1.6-.3 1.8-.3 4.3-.8 5.6-.8 43.6.2 52.2 38.6 52.9 47h-35.8z" fill="#2388ed" data-color="1"></path>
        <path d="M111.1 140.1c-1.6 0-2.8 1.2-2.8 2.8s1.2 2.8 2.8 2.8 2.8-1.2 2.8-2.8-1.3-2.8-2.8-2.8zm-.5 3.1c-.1 0-.1-.1-.1-.1l.1-.1v.2z" fill="#2388ed" data-color="1"></path>
        <path d="M111.1 151.9c-1.6 0-2.8 1.2-2.8 2.8 0 1.6 1.2 2.8 2.8 2.8s2.8-1.2 2.8-2.8c0-1.6-1.3-2.8-2.8-2.8zm-.5 2.9c-.1 0-.1-.1-.1-.1l.1-.1v.2z" fill="#2388ed" data-color="1"></path>
    </g>
</svg>